<?xml version="1.0" encoding="utf-8"?>
<!-- Generator: Adobe Illustrator 19.0.0, SVG Export Plug-In . SVG Version: 6.00 Build 0)  -->
<svg version="1.1" xmlns="http://www.w3.org/2000/svg" xmlns:xlink="http://www.w3.org/1999/xlink" x="0px" y="0px"
	 viewBox="0 0 512 512" style="enable-background:new 0 0 512 512;" xml:space="preserve">
<style type="text/css">
	.st0{display:none;}
	.st1{display:inline;}
	.st2{fill:#7F7454;}
	.st3{display:inline;fill:#FAAE78;}
	.st4{fill:#6B3319;}
	.st5{fill:#B55927;}
	.st6{fill:#FEE7A3;}
</style>
<g id="Layer_11" class="st0">
	<g id="XMLID_1_" class="st1">
		<g id="XMLID_25_">
			<path id="XMLID_29_" class="st2" d="M-206,105.5c3.217,0,3.223-5,0-5C-209.217,100.5-209.223,105.5-206,105.5L-206,105.5z"/>
		</g>
	</g>
	<g id="XMLID_2_" class="st1">
		<g id="XMLID_32_">
			<path id="XMLID_36_" class="st2" d="M100,65.5c3.217,0,3.223-5,0-5C96.783,60.5,96.777,65.5,100,65.5L100,65.5z"/>
		</g>
	</g>
	<g id="XMLID_4_" class="st1">
		<g id="XMLID_39_">
			<path id="XMLID_76_" class="st2" d="M172.731,83.59c30.558-21.145,67.246-29.25,102.997-36.93
				c3.144-0.675,1.814-5.497-1.329-4.821c-36.15,7.766-73.295,16.055-104.191,37.434C167.579,81.092,170.076,85.427,172.731,83.59
				L172.731,83.59z"/>
		</g>
	</g>
	<rect id="XMLID_5_" class="st3" width="512" height="512"/>
</g>
<g id="Layer_1_down">
	<path id="XMLID_96_" class="st4" d="M83.056,430.855L41.582,286.908c-1.09-3.784,1.042-7.747,4.802-8.921l71.87-22.45
		c4.392-1.372,6.739-6.142,5.146-10.459l-9.626-26.081c-1.325-3.59-5.15-5.596-8.856-4.644l-71.291,18.299
		c-4.029,1.034-8.15-1.318-9.309-5.313l-7.795-26.875c-1.294-4.46,1.489-9.076,6.037-10.015l105.956-21.874
		c3.013-0.622,6.04,0.999,7.193,3.851l41.36,102.347c1.63,4.034-0.385,8.618-4.46,10.143l-66.173,24.778
		c-3.327,1.246-5.075,4.898-3.958,8.27l11.428,34.51c1.626,4.911,7.135,7.348,11.863,5.249l65.091-28.906
		c3.73-1.657,8.091,0.107,9.62,3.892l13.623,33.711c1.432,3.543-0.059,7.594-3.445,9.365L95.297,436.092
		C90.478,438.611,84.561,436.08,83.056,430.855z"/>
	<path id="XMLID_101_" class="st4" d="M333.15,300.034l-78.738-151.013c-1.793-3.439-5.65-5.271-9.449-4.486l-68.966,14.238
		c-4.71,0.972-7.33,6.033-5.406,10.44l77.114,176.615c2.035,4.661,7.595,6.62,12.102,4.263l68.942-36.041
		C333.832,311.392,335.801,305.119,333.15,300.034z M281.18,289.311l-15.076,6.695c-3.342,1.484-7.257,0.019-8.804-3.294
		l-44.569-95.467c-2.013-4.311,0.387-9.39,4.995-10.572l13.444-3.451c3.477-0.892,7.105,0.771,8.697,3.988l45.207,91.319
		C287.077,282.577,285.307,287.478,281.18,289.311z"/>
	<path id="XMLID_93_" class="st4" d="M441.255,248.368l-47.783-75.735c-1.524-2.416-0.345-5.62,2.381-6.471l21.958-6.859
		c2.77-0.865,3.931-4.148,2.322-6.563l-10.862-16.295c-1.025-1.538-2.91-2.26-4.7-1.8l-27.111,6.959
		c-1.829,0.469-3.752-0.295-4.759-1.892l-10.304-16.331c-1.621-2.569-0.176-5.965,2.799-6.579l39.718-8.2
		c1.721-0.355,3.487,0.36,4.475,1.814l42.048,61.834c1.585,2.33,0.568,5.53-2.071,6.518l-20.193,7.561
		c-2.604,0.975-3.636,4.109-2.122,6.441l12.493,19.243c1.164,1.793,3.459,2.474,5.412,1.606l23.463-10.42
		c1.921-0.853,4.178-0.21,5.36,1.528l12.948,19.031c1.465,2.154,0.721,5.104-1.591,6.305l-38.2,19.845
		C444.932,250.949,442.462,250.28,441.255,248.368z"/>
	<path id="XMLID_92_" class="st4" d="M311.91,197.258l12.486,22.866c1.415,2.591,4.519,3.746,7.283,2.711l17.557-6.574
		l-14.812-26.021c-1.379-2.423-4.26-3.558-6.921-2.726l-13.339,4.166C311.821,192.411,310.733,195.103,311.91,197.258z"/>
	<path id="XMLID_91_" class="st4" d="M354.459,182.214l15.53,26.276l16.55-6.197c1.426-0.534,2.012-2.236,1.218-3.535
		l-14.452-23.631c-0.58-0.948-1.73-1.38-2.791-1.049l-14.692,4.589C354.331,179.133,353.663,180.868,354.459,182.214z"/>
	<polygon id="XMLID_90_" class="st4" points="349.236,216.26 367.351,248.083 387.975,238.923 369.988,208.49 	"/>
	<path id="XMLID_89_" class="st4" d="M348.491,264.246l12.467,22.831c1.824,3.341,5.988,4.605,9.362,2.843l10.022-5.235
		c3.303-1.725,4.515-5.847,2.671-9.086l-15.663-27.516l-15.756,6.997C348.08,256.641,346.647,260.871,348.491,264.246z"/>
	<path id="XMLID_88_" class="st4" d="M387.975,238.923l15.488,26.205c1.809,3.061,5.697,4.171,8.85,2.526l6.849-3.573
		c3.481-1.816,4.656-6.225,2.54-9.532l-12.52-19.57c-1.568-2.451-4.691-3.389-7.35-2.208L387.975,238.923z"/>
</g>
<g id="Layer_1">
	<path id="XMLID_187_" class="st5" d="M90.327,418.585L48.853,274.639c-1.09-3.784,1.042-7.747,4.802-8.921l71.87-22.45
		c4.392-1.372,6.739-6.142,5.146-10.459l-9.626-26.081c-1.325-3.59-5.15-5.596-8.856-4.645l-71.291,18.299
		c-4.029,1.034-8.15-1.318-9.309-5.313l-7.795-26.875c-1.294-4.46,1.489-9.076,6.037-10.015l105.956-21.874
		c3.013-0.622,6.04,0.999,7.193,3.851l41.36,102.347c1.63,4.034-0.385,8.618-4.46,10.143l-66.173,24.778
		c-3.327,1.246-5.075,4.898-3.958,8.27l11.428,34.51c1.626,4.911,7.135,7.348,11.863,5.249l65.091-28.906
		c3.73-1.657,8.091,0.107,9.62,3.892l13.623,33.711c1.432,3.543-0.059,7.594-3.445,9.365l-115.361,60.308
		C97.75,426.342,91.833,423.81,90.327,418.585z"/>
	<path id="XMLID_184_" class="st5" d="M340.421,287.764l-78.738-151.013c-1.793-3.439-5.651-5.271-9.449-4.486l-68.966,14.238
		c-4.71,0.972-7.33,6.033-5.406,10.44l77.114,176.615c2.035,4.661,7.595,6.62,12.102,4.263l68.942-36.041
		C341.104,299.123,343.073,292.85,340.421,287.764z M292.026,274.85l-15.076,6.695c-3.342,1.484-7.257,0.019-8.804-3.294
		l-44.569-95.467c-2.013-4.311,0.387-9.39,4.995-10.572l13.444-3.451c3.477-0.892,7.105,0.771,8.697,3.988l45.207,91.319
		C297.924,268.115,296.153,273.017,292.026,274.85z"/>
	<path id="XMLID_183_" class="st5" d="M446.192,239.492l-47.783-75.735c-1.524-2.416-0.345-5.62,2.381-6.471l21.958-6.859
		c2.77-0.865,3.931-4.148,2.322-6.563l-10.862-16.295c-1.025-1.538-2.91-2.26-4.7-1.8l-27.111,6.959
		c-1.829,0.469-3.752-0.295-4.759-1.892l-10.304-16.331c-1.621-2.569-0.176-5.965,2.799-6.579l39.718-8.2
		c1.721-0.355,3.487,0.36,4.475,1.814l42.048,61.834c1.585,2.33,0.568,5.53-2.071,6.518l-20.193,7.561
		c-2.604,0.975-3.636,4.109-2.122,6.441l12.493,19.243c1.164,1.793,3.459,2.474,5.412,1.606l23.463-10.42
		c1.921-0.853,4.178-0.21,5.36,1.528l12.948,19.031c1.465,2.154,0.721,5.104-1.591,6.305l-38.2,19.845
		C449.868,242.073,447.398,241.404,446.192,239.492z"/>
	<path id="XMLID_182_" class="st5" d="M316.846,188.381l12.486,22.866c1.415,2.591,4.519,3.746,7.283,2.711l17.557-6.574
		l-14.812-26.021c-1.379-2.423-4.26-3.558-6.921-2.726l-13.339,4.166C316.758,183.535,315.67,186.227,316.846,188.381z"/>
	<path id="XMLID_181_" class="st5" d="M359.395,173.337l15.53,26.276l16.55-6.197c1.426-0.534,2.012-2.236,1.218-3.535
		l-14.452-23.631c-0.58-0.948-1.73-1.38-2.791-1.049l-14.692,4.589C359.267,170.256,358.6,171.992,359.395,173.337z"/>
	<polygon id="XMLID_180_" class="st5" points="354.173,207.384 372.287,239.206 392.912,230.047 374.925,199.613 	"/>
	<path id="XMLID_179_" class="st5" d="M353.427,255.37l12.467,22.831c1.824,3.341,5.988,4.605,9.362,2.843l10.022-5.235
		c3.303-1.725,4.515-5.847,2.672-9.086l-15.663-27.516l-15.756,6.997C353.016,247.764,351.584,251.994,353.427,255.37z"/>
	<path id="XMLID_178_" class="st5" d="M392.912,230.047l15.488,26.205c1.809,3.061,5.697,4.171,8.85,2.526l6.849-3.573
		c3.481-1.816,4.656-6.225,2.54-9.532l-12.52-19.57c-1.568-2.451-4.691-3.389-7.35-2.208L392.912,230.047z"/>
</g>
<g id="_x32__x5F_1_x5F_down">
	<polygon id="XMLID_57_" class="st2" points="81.593,203.551 111.52,196.212 102,170.143 72.435,176.375 	"/>
	<polygon id="XMLID_56_" class="st2" points="122.906,193.42 149.709,186.847 140.112,162.11 113.261,167.77 	"/>
	<polygon id="XMLID_55_" class="st2" points="127.336,205.201 137.644,232.614 165.145,224.378 154.574,198.083 	"/>
	<polygon id="XMLID_54_" class="st2" points="142.384,245.219 153.426,274.584 181.297,264.553 170,236.454 	"/>
	<polygon id="XMLID_53_" class="st2" points="130.764,248.906 100.152,258.622 110.711,289.956 141.685,278.809 	"/>
	<polygon id="XMLID_52_" class="st2" points="97.627,294.665 87.237,262.72 53.112,273.55 63.001,307.125 	"/>
	<polygon id="XMLID_51_" class="st2" points="67.572,322.645 102.421,309.407 113.636,343.888 78.281,359.002 	"/>
	<polygon id="XMLID_50_" class="st2" points="83.239,375.835 118.819,359.824 130.961,397.155 94.873,415.335 	"/>
	<polygon id="XMLID_49_" class="st2" points="132.224,353.792 144.534,390.317 176.523,374.202 163.869,339.553 	"/>
	<polygon id="XMLID_48_" class="st2" points="175.832,334.169 188.598,368.119 217.15,353.735 204.47,322.196 	"/>
	<polygon id="XMLID_47_" class="st2" points="27.293,185.89 35.802,214.78 68.997,206.639 60.006,178.995 	"/>
</g>
<g id="_x32__x5F_1_x5F_up">
	<polygon id="XMLID_156_" class="st6" points="82.158,201.587 112.085,194.248 102.565,168.18 72.999,174.411 	"/>
	<polygon id="XMLID_155_" class="st6" points="123.471,191.456 150.274,184.883 140.677,160.146 113.826,165.806 	"/>
	<polygon id="XMLID_154_" class="st6" points="127.901,203.237 138.209,230.65 165.71,222.414 155.139,196.119 	"/>
	<polygon id="XMLID_153_" class="st6" points="142.949,243.255 153.991,272.62 181.861,262.59 170.565,234.49 	"/>
	<polygon id="XMLID_152_" class="st6" points="131.329,246.942 100.717,256.658 111.276,287.992 142.25,276.845 	"/>
	<polygon id="XMLID_151_" class="st6" points="98.191,292.701 87.802,260.757 53.677,271.587 63.566,305.162 	"/>
	<polygon id="XMLID_150_" class="st6" points="68.137,320.681 102.986,307.444 114.201,341.924 78.846,357.039 	"/>
	<polygon id="XMLID_149_" class="st6" points="83.804,373.871 119.384,357.861 131.525,395.191 95.438,413.371 	"/>
	<polygon id="XMLID_148_" class="st6" points="132.789,351.828 145.098,388.354 177.088,372.238 164.434,337.589 	"/>
	<polygon id="XMLID_147_" class="st6" points="176.397,332.205 189.163,366.155 217.715,351.771 205.035,320.232 	"/>
	<polygon id="XMLID_146_" class="st6" points="27.858,183.926 36.367,212.816 69.562,204.676 60.571,177.031 	"/>
</g>
<g id="_x30__x5F_down">
	<polygon id="XMLID_69_" class="st2" points="179.715,153.784 189.949,177.005 212.806,171.4 202.427,148.997 	"/>
	<polygon id="XMLID_68_" class="st2" points="209.831,147.346 220.257,169.438 241.222,164.297 230.7,142.947 	"/>
	<polygon id="XMLID_67_" class="st2" points="248.748,162.702 267.883,158.01 257.271,137.621 238.03,141.677 	"/>
	<polygon id="XMLID_66_" class="st2" points="194.636,187.642 205.513,212.322 228.564,205.419 217.555,181.653 	"/>
	<polygon id="XMLID_65_" class="st2" points="210.5,223.637 222.082,249.918 245.306,241.56 233.607,216.304 	"/>
	<polygon id="XMLID_64_" class="st2" points="227.397,261.979 240.01,290.598 263.127,280.03 250.67,253.139 	"/>
	<polygon id="XMLID_63_" class="st2" points="245.262,302.982 268.844,292.371 282.134,321.061 258.649,332.892 	"/>
	<polygon id="XMLID_62_" class="st2" points="277.763,288.357 291.072,316.558 312.369,305.829 299.039,278.783 	"/>
	<polygon id="XMLID_61_" class="st2" points="305.356,275.73 318.686,302.339 337.277,292.973 323.725,267.464 	"/>
	<polygon id="XMLID_60_" class="st2" points="299.439,264.261 318.862,255.957 306.315,231.851 286.898,239.227 	"/>
	<polygon id="XMLID_59_" class="st2" points="281.488,228.428 300.898,221.443 289.051,198.681 269.084,205.018 	"/>
	<polygon id="XMLID_58_" class="st2" points="265.832,197.175 253.405,172.368 272.728,167.319 285.203,191.289 	"/>
</g>
<g id="_x30__x5F_up">
	<polygon id="XMLID_122_" class="st6" points="180.136,151.829 190.37,175.051 213.227,169.446 202.848,147.042 	"/>
	<polygon id="XMLID_121_" class="st6" points="210.252,145.391 220.678,167.484 241.643,162.342 231.121,140.993 	"/>
	<polygon id="XMLID_120_" class="st6" points="249.169,160.748 268.304,156.056 257.692,135.667 238.451,139.722 	"/>
	<polygon id="XMLID_119_" class="st6" points="195.057,185.687 205.934,210.367 228.985,203.464 217.976,179.698 	"/>
	<polygon id="XMLID_118_" class="st6" points="210.921,221.683 222.503,247.964 245.727,239.606 234.028,214.349 	"/>
	<polygon id="XMLID_117_" class="st6" points="227.818,260.025 240.431,288.643 263.548,278.075 251.091,251.184 	"/>
	<polygon id="XMLID_116_" class="st6" points="245.683,301.027 269.264,290.416 282.555,319.106 259.07,330.937 	"/>
	<polygon id="XMLID_115_" class="st6" points="278.184,286.402 291.493,314.604 312.79,303.875 299.46,276.828 	"/>
	<polygon id="XMLID_114_" class="st6" points="305.777,273.775 319.107,300.384 337.698,291.019 324.146,265.509 	"/>
	<polygon id="XMLID_113_" class="st6" points="299.86,262.307 319.283,254.003 306.736,229.896 287.319,237.272 	"/>
	<polygon id="XMLID_112_" class="st6" points="281.909,226.473 301.319,219.488 289.472,196.726 269.505,203.063 	"/>
	<polygon id="XMLID_111_" class="st6" points="266.253,195.221 253.826,170.414 273.149,165.364 285.624,189.334 	"/>
</g>
<g id="x_x5F_down">
	<polygon id="XMLID_74_" class="st2" points="320.125,186.899 336.802,181.606 348.62,202.448 331.969,208.44 	"/>
	<polygon id="XMLID_73_" class="st2" points="359.589,211.646 374.967,205.805 387.344,226.785 372.417,233.167 	"/>
	<polygon id="XMLID_72_" class="st2" points="362.184,173.552 376.683,168.95 388.373,188.165 373.932,193.362 	"/>
	<polygon id="XMLID_71_" class="st2" points="372.794,244.906 356.231,252.359 369.465,276.43 385.958,268.122 	"/>
	<polygon id="XMLID_70_" class="st2" points="398.31,233.591 412.604,227.159 425.528,248.404 411.335,255.554 	"/>
</g>
<g id="x_x5F_up">
	<polygon id="XMLID_45_" class="st6" points="320.125,185.678 336.802,180.385 348.62,201.227 331.969,207.219 	"/>
	<polygon id="XMLID_44_" class="st6" points="359.589,210.425 374.967,204.584 387.344,225.564 372.417,231.946 	"/>
	<polygon id="XMLID_43_" class="st6" points="362.184,172.331 376.683,167.729 388.373,186.944 373.932,192.141 	"/>
	<polygon id="XMLID_42_" class="st6" points="372.794,243.685 356.231,251.138 369.465,275.209 385.958,266.901 	"/>
	<polygon id="XMLID_41_" class="st6" points="398.31,232.37 412.604,225.938 425.528,247.183 411.335,254.333 	"/>
</g>
<g id="_x32__x5F_2_x5F_down">
	<polygon id="XMLID_87_" class="st2" points="368.056,112.214 380.828,109.522 391.329,125.729 378.607,128.848 	"/>
	<polygon id="XMLID_86_" class="st2" points="384.871,108.48 395.35,124.521 407.274,121.597 396.854,105.954 	"/>
	<polygon id="XMLID_85_" class="st2" points="400.091,105.462 411.454,103.067 421.796,118.258 410.498,121.028 	"/>
	<polygon id="XMLID_84_" class="st2" points="414.964,127.421 426.239,124.521 438.2,142.089 427.011,145.439 	"/>
	<polygon id="XMLID_83_" class="st2" points="399.463,161.727 412.063,157.728 423.545,175.448 411.026,179.954 	"/>
	<polygon id="XMLID_82_" class="st2" points="416.377,187.539 428.867,182.858 442.204,203.441 429.822,208.735 	"/>
	<polygon id="XMLID_81_" class="st2" points="434.427,217.102 446.761,211.552 459.368,231.009 447.152,237.163 	"/>
	<polygon id="XMLID_80_" class="st2" points="464.082,228.634 451.523,209.409 463.025,204.233 475.46,222.902 	"/>
	<polygon id="XMLID_79_" class="st2" points="479.856,220.687 467.538,202.202 477.106,197.897 489.195,215.983 	"/>
	<polygon id="XMLID_78_" class="st2" points="427.311,174.093 438.777,169.924 427.554,152.805 416.272,156.392 	"/>
	<polygon id="XMLID_77_" class="st2" points="442.357,168.678 453.416,164.698 442.166,148.174 431.015,151.713 	"/>
</g>
<g id="_x32__x5F_2_x5F_up">
	<polygon id="XMLID_24_" class="st6" points="368.554,110.668 381.327,107.976 391.828,124.183 379.106,127.302 	"/>
	<polygon id="XMLID_23_" class="st6" points="385.37,106.934 395.849,122.975 407.772,120.051 397.353,104.408 	"/>
	<polygon id="XMLID_22_" class="st6" points="400.589,103.916 411.952,101.521 422.295,116.712 410.997,119.482 	"/>
	<polygon id="XMLID_21_" class="st6" points="415.463,125.875 426.737,122.975 438.698,140.543 427.509,143.893 	"/>
	<polygon id="XMLID_20_" class="st6" points="399.962,160.181 412.561,156.182 424.043,173.902 411.524,178.408 	"/>
	<polygon id="XMLID_19_" class="st6" points="416.875,185.993 429.365,181.312 442.702,201.895 430.321,207.189 	"/>
	<polygon id="XMLID_18_" class="st6" points="434.926,215.556 447.259,210.006 459.867,229.463 447.651,235.617 	"/>
	<polygon id="XMLID_17_" class="st6" points="464.58,227.088 452.022,207.863 463.523,202.687 475.959,221.356 	"/>
	<polygon id="XMLID_16_" class="st6" points="480.355,219.141 468.036,200.656 477.605,196.351 489.693,214.437 	"/>
	<polygon id="XMLID_15_" class="st6" points="427.809,172.547 439.275,168.378 428.053,151.259 416.77,154.846 	"/>
	<polygon id="XMLID_14_" class="st6" points="442.856,167.132 453.915,163.152 442.664,146.628 431.513,150.167 	"/>
</g>
</svg>
